<?xml version="1.0" encoding="iso-8859-1"?>
<!-- Generator: Adobe Illustrator 16.0.0, SVG Export Plug-In . SVG Version: 6.00 Build 0)  -->
<!DOCTYPE svg PUBLIC "-//W3C//DTD SVG 1.1//EN" "http://www.w3.org/Graphics/SVG/1.1/DTD/svg11.dtd">
<svg version="1.1" id="Layer_1" xmlns="http://www.w3.org/2000/svg" xmlns:xlink="http://www.w3.org/1999/xlink" x="0px" y="0px"
	 width="49.237px" height="38.35px" viewBox="0 0 49.237 38.35" style="enable-background:new 0 0 49.237 38.35;"
	 xml:space="preserve">
<path d="M46.949,15.014h-3V6.814l0,0C43.946,6.814,43.134,3,36.912,3c-6.067,0-7.037,3.864-7.042,3.903l0.005,8.11h-3V6.814
	C26.874,5.068,29.345,0,36.912,0c7.659,0,10.038,4.995,10.038,6.814V15.014z"/>
<path d="M27.606,23.613c-4.201,0-8.401,0-12.602,0c-0.986-3.105-3.895-5.363-7.323-5.363C3.446,18.25,0,21.696,0,25.932
	c0,4.236,3.446,7.683,7.682,7.683c3.292,0,6.098-2.085,7.189-5.001c1.414,0,2.828,0,4.241,0v3.834h2v-3.834c0.639,0,1.278,0,1.917,0
	v5.778h2v-5.778c0.526,0,1.052,0,1.578,0v3.834h2v-4.03C30.782,27.501,30.451,23.613,27.606,23.613z M7.682,30.614
	C5.1,30.614,3,28.514,3,25.932c0-2.581,2.1-4.682,4.682-4.682s4.682,2.101,4.682,4.682C12.364,28.514,10.263,30.614,7.682,30.614z"
	/>
<g>
	<path d="M24.19,17.26v4.354h3.417c2.157,0,3.894,1.419,4.32,3.531c0.331,1.64-0.206,3.275-1.32,4.319v2.983v2h-2h-1.578v1.944h-2
		H24.19v1.958h25.047V17.26H24.19z M33.525,34.392l2.188-6.688c-0.937-0.64-1.553-1.714-1.553-2.934c0-1.962,1.59-3.552,3.551-3.552
		s3.551,1.59,3.551,3.552c0,1.241-0.64,2.331-1.606,2.966l2.46,6.656H33.525z"/>
	<path d="M28.606,32.447v-4.03c2.176-0.916,1.845-4.804-1-4.804c-1.139,0-2.278,0-3.417,0v10.778h0.839v-5.778
		c0.526,0,1.052,0,1.578,0v3.834H28.606z"/>
</g>
<g>
</g>
<g>
</g>
<g>
</g>
<g>
</g>
<g>
</g>
<g>
</g>
<g>
</g>
<g>
</g>
<g>
</g>
<g>
</g>
<g>
</g>
<g>
</g>
<g>
</g>
<g>
</g>
<g>
</g>
</svg>
