<?xml version="1.0" encoding="iso-8859-1"?>
<!-- Generator: Adobe Illustrator 16.0.4, SVG Export Plug-In . SVG Version: 6.00 Build 0)  -->
<!DOCTYPE svg PUBLIC "-//W3C//DTD SVG 1.1//EN" "http://www.w3.org/Graphics/SVG/1.1/DTD/svg11.dtd">
<svg version="1.1" id="Capa_1" xmlns="http://www.w3.org/2000/svg" xmlns:xlink="http://www.w3.org/1999/xlink" x="0px" y="0px"
	 width="48px" height="46px" viewBox="0 0 48 46" style="enable-background:new 0 0 48 46;" xml:space="preserve">
<g id="_x32_38._Unlocked">
	<g>
		<path d="M44,17.999H24V12c0-6.628-5.373-12-12-12C5.372,0,0,5.372,0,12v8c0,1.104,0.896,2,2,2s2-0.896,2-2v-8c0-4.419,3.581-8,8-8
			c4.418,0,8,3.581,8,8v5.999c-2.209,0-4,1.791-4,4V42c0,2.209,1.791,4,4,4h24c2.209,0,4-1.791,4-4V21.999
			C48,19.79,46.209,17.999,44,17.999z M44,42H20V22h24V42z M30,33.445V36c0,1.104,0.896,1.999,2,1.999s2-0.895,2-1.999v-2.555
			c1.19-0.693,2-1.969,2-3.445c0-2.21-1.791-4.001-4-4.001S28,27.79,28,30C28,31.477,28.81,32.752,30,33.445z"/>
	</g>
</g>
<g>
</g>
<g>
</g>
<g>
</g>
<g>
</g>
<g>
</g>
<g>
</g>
<g>
</g>
<g>
</g>
<g>
</g>
<g>
</g>
<g>
</g>
<g>
</g>
<g>
</g>
<g>
</g>
<g>
</g>
</svg>
